<svg style="height: 128px; width: 128px;" xmlns="http://www.w3.org/2000/svg" viewBox="0 0 512 512"><path d="M0 0h512v512H0z" fill="#000" fill-opacity="1"></path><g class="" style="touch-action: none;" transform="translate(0,0)"><path d="M327.2 20.15l17.6 3.7c-2.4 11.35-7.4 23.1-14.6 34.5a96 72.02 0 0 0-15.1-11.07c6.1-9.48 10.4-18.82 12.1-27.13zm-142.4 0c1.7 8.33 6 17.68 12.1 27.19a96 72.02 0 0 0-15.1 11.02c-7.2-11.4-12.2-23.16-14.6-34.51zM256 55c19 0 36.2 9 49 17.51 12.8 8.51 21.4 17.13 21.4 17.13l-12.8 12.76s-7.4-7.42-18.6-14.91C283.8 80 269 73 256 73s-27.8 7-39 14.49-18.6 14.91-18.6 14.91l-12.8-12.76s8.6-8.62 21.4-17.13C219.8 64 237 55 256 55zm217 40.83c.5 24.17-12.2 43.17-28.9 57.07-4.5 3.7-9.3 7.1-14.2 10.2-2.9-5.3-5.9-10.5-9.2-15.5 4.2-2.7 8.2-5.6 11.9-8.6 14.1-11.7 22.8-24.9 22.4-42.83zm-433.97 0l18 .34c-.3 17.93 8.3 31.13 22.5 42.83 3.6 3 7.6 5.9 11.8 8.6-3.2 5-6.3 10.2-9.2 15.5-4.9-3.1-9.6-6.5-14.1-10.2-16.8-13.9-29.5-32.9-29-57.07zm312.87 6.67C404.1 137.4 439 200.1 439 272c0 47.5-15.2 90.9-40.5 125a40 40 0 0 0-38.5-29 40 40 0 0 0-40 40 40 40 0 0 0 25.9 37.4c-11.1 6.8-22.9 12.4-35.3 16.6-23.4-29.3-35.8-68.3-45.6-106V175.7a96 72.02 0 0 0 87-71.7 96 72.02 0 0 0-.1-1.5zm-191.8 0a96 72.02 0 0 0-.1 1.5 96 72.02 0 0 0 87 71.6V356c-9.8 37.7-22.2 76.7-45.6 106-12.4-4.2-24.2-9.8-35.3-16.6A40 40 0 0 0 192 408a40 40 0 0 0-40-40 40 40 0 0 0-38.4 29.1C88.23 363 73.03 319.5 73.03 272c0-71.9 34.87-134.6 87.07-169.5zM320 180a16 16 0 0 0-16 16 16 16 0 0 0 16 16 16 16 0 0 0 16-16 16 16 0 0 0-16-16zm-128 0a16 16 0 0 0-16 16 16 16 0 0 0 16 16 16 16 0 0 0 16-16 16 16 0 0 0-16-16zm200 28a24 24 0 0 0-24 24 24 24 0 0 0 24 24 24 24 0 0 0 24-24 24 24 0 0 0-24-24zm-272 0a24 24 0 0 0-23.97 24A24 24 0 0 0 120 256a24 24 0 0 0 24-24 24 24 0 0 0-24-24zm365.6 39.3l4.9 17.4-33.5 9.6V272c0-5.5-.2-11-.5-16.4zm-459.07 0l29.1 8.3c-.4 5.4-.6 10.9-.6 16.4v2.3l-33.5-9.6zM312 272a32 32 0 0 0-32 32 32 32 0 0 0 32 32 32 32 0 0 0 32-32 32 32 0 0 0-32-32zm-112 0a32 32 0 0 0-32 32 32 32 0 0 0 32 32 32 32 0 0 0 32-32 32 32 0 0 0-32-32zm216.4 130.8c.6.7 1.1 1.4 1.7 2.1 16.5 19.1 35.8 31.6 62.8 34.1l-1.7 18c-31.5-3.1-55.5-18.4-74.1-39.6 4-4.7 7.7-9.6 11.3-14.6zm-320.67 0c3.5 5 7.17 9.9 11.17 14.6-18.57 21.2-42.57 36.5-73.97 39.6l-1.8-18c27-2.5 46.3-15 62.8-34.1z" fill="#fff" fill-opacity="1"></path></g><g class="" style="touch-action: none;" transform="translate(256,256)"><g><circle cx="128" cy="128" r="128" fill="#000" fill-opacity="1"></circle><circle stroke="#fff" stroke-opacity="1" fill="#000" fill-opacity="1" stroke-width="18" cx="128" cy="128" r="101"></circle><path fill="#fff" fill-opacity="1" d="M150.094 59.7L139.07 78.695c-7.27-1.615-15.652-1.322-22.142.234l-10.791-19.054L80.33 74.858 91.5 94.554a48.133 48.133 0 0 0-9.938 18.63l-23.52.105-.197 29.834 25.035-.119a49.2 49.2 0 0 0 9.666 15.859L79.5 181.36l25.61 14.852 13.108-22.596a47.62 47.62 0 0 0 18.542.3l13.102 22.58 25.623-15.283c-4.08-7.22-8.161-14.44-12.244-21.66a48.554 48.554 0 0 0 10.252-16.378l24.464-.092.198-29.834-23.235-.156a48.717 48.717 0 0 0-10.387-19.304l11.172-19.24zm-19.705 44.292c12.71 1.043 22.352 12.16 21.787 25.043-.584 13.297-11.839 23.598-25.137 23.015-13.3-.582-23.855-11.836-23.018-25.121.905-14.35 13.161-24.021 26.368-22.937z"></path></g></g></svg>